Coordinates
version=1
nRows=27
nColumns=12
inDegrees=yes

Units are S.I. units (second, meters, Newtons, ...)
Angles are in degrees

endheader
time	SC_y	SC_z	SC_x	AC_y	AC_z	AC_x	GH_y	GH_z	GH_yy	EL_x	PS_y
       0.0              -24.08         -4.844          56.86           55.6         -2.059         -11.26           95.2          56.55          14.29          139.1          107.2
   0.02101              -24.08          -4.84          56.86           55.6          -2.06         -11.26          95.17          56.55          14.29          139.1          107.2
   0.04202              -24.08         -4.836          56.85           55.6         -2.062         -11.26          95.13          56.54          14.29          139.1          107.2
   0.06304              -24.09         -4.832          56.84           55.6         -2.063         -11.26          95.09          56.53          14.29          139.1          107.2
   0.08405              -24.09         -4.828          56.84          55.59         -2.064         -11.26          95.04          56.52          14.29          139.1          107.2
    0.1051              -24.09         -4.823          56.83          55.59         -2.066         -11.26           95.0          56.51          14.28          139.1          107.2
    0.1261              -24.09         -4.818          56.82          55.59         -2.067         -11.26          94.95           56.5          14.28          139.1          107.2
    0.1471               -24.1         -4.813          56.81          55.59         -2.069         -11.26           94.9          56.49          14.28          139.1          107.2
    0.1681               -24.1         -4.807           56.8          55.59          -2.07         -11.26          94.84          56.47          14.28          139.1          107.2
    0.1891               -24.1         -4.801          56.79          55.58         -2.072         -11.26          94.78          56.46          14.27          139.1          107.2
    0.2101               -24.1         -4.794          56.77          55.58         -2.074         -11.26          94.72          56.45          14.27          139.1          107.1
    0.2311              -24.11         -4.787          56.76          55.58         -2.076         -11.26          94.65          56.43          14.27          139.1          107.1
    0.2521              -24.11         -4.779          56.75          55.57         -2.079         -11.26          94.58          56.41          14.26          139.1          107.1
    0.2732              -24.12         -4.771          56.73          55.57         -2.081         -11.26           94.5           56.4          14.26          139.1          107.1
    0.2942              -24.12         -4.762          56.71          55.57         -2.084         -11.26          94.41          56.38          14.25          139.1          107.1
    0.3152              -24.13         -4.753           56.7          55.56         -2.087         -11.26          94.32          56.36          14.25          139.0          107.1
    0.3362              -24.13         -4.742          56.68          55.56          -2.09         -11.26          94.21          56.33          14.24          139.0          107.0
    0.3572              -24.14         -4.731          56.66          55.55         -2.094         -11.26           94.1          56.31          14.24          139.0          107.0
    0.3782              -24.14         -4.718          56.63          55.55         -2.097         -11.26          93.98          56.28          14.23          139.0          107.0
    0.3992              -24.15         -4.704          56.61          55.54         -2.102         -11.27          93.85          56.25          14.23          139.0          107.0
    0.4202              -24.16         -4.689          56.58          55.54         -2.106         -11.27           93.7          56.22          14.22          139.0          106.9
    0.4413              -24.17         -4.673          56.55          55.53         -2.111         -11.27          93.54          56.18          14.21          139.0          106.9
    0.4623              -24.17         -4.655          56.51          55.52         -2.117         -11.27          93.36          56.14           14.2          139.0          106.9
    0.4833              -24.18         -4.634          56.48          55.52         -2.123         -11.27          93.17           56.1          14.19          139.0          106.8
    0.5043               -24.2         -4.612          56.43          55.51          -2.13         -11.27          92.95          56.05          14.18          139.0          106.8
    0.5253              -24.21         -4.587          56.39           55.5         -2.137         -11.27           92.7           56.0          14.17          139.0          106.7
    0.5463              -24.22         -4.559          56.34          55.48         -2.146         -11.27          92.43          55.94          14.16          138.9          106.6
